<svg width="46" height="15" viewBox="0 0 46 15" fill="none" xmlns="http://www.w3.org/2000/svg">
<mask id="path-1-outside-1_1_6" maskUnits="userSpaceOnUse" x="0" y="0" width="46" height="15" fill="black">
<rect fill="white" width="46" height="15"/>
<path d="M1 10.3857V1.42383C1 1.30078 1.03874 1.20052 1.11621 1.12305C1.19824 1.04102 1.2985 1 1.41699 1H2.94824C3.06673 1 3.16471 1.04102 3.24219 1.12305C3.32422 1.20052 3.36523 1.30078 3.36523 1.42383V4.16504C4.14909 3.50423 4.98307 3.17383 5.86719 3.17383C6.75586 3.17383 7.47819 3.44499 8.03418 3.9873C8.59017 4.52507 8.86816 5.34993 8.86816 6.46191V10.3857C8.86816 10.5042 8.82715 10.6045 8.74512 10.6865C8.66764 10.764 8.56738 10.8027 8.44434 10.8027H6.91992C6.80143 10.8027 6.70117 10.764 6.61914 10.6865C6.54167 10.6045 6.50293 10.5042 6.50293 10.3857V6.46191C6.50293 5.37272 6.06771 4.82812 5.19727 4.82812C4.6276 4.82812 4.01693 5.15397 3.36523 5.80566V10.3857C3.36523 10.5042 3.32422 10.6045 3.24219 10.6865C3.16471 10.764 3.06673 10.8027 2.94824 10.8027H1.41699C1.2985 10.8027 1.19824 10.764 1.11621 10.6865C1.03874 10.6045 1 10.5042 1 10.3857ZM11.1855 9.94141C10.4837 9.27604 10.1328 8.31901 10.1328 7.07031C10.1328 5.81706 10.486 4.85547 11.1924 4.18555C11.8988 3.51107 12.8786 3.17383 14.1318 3.17383C15.3851 3.17383 16.3626 3.50195 17.0645 4.1582C17.7663 4.8099 18.1172 5.74642 18.1172 6.96777V7.35742C18.1172 7.48047 18.0762 7.58301 17.9941 7.66504C17.9167 7.74251 17.8164 7.78125 17.6934 7.78125H12.5459C12.5915 8.3418 12.751 8.74967 13.0244 9.00488C13.3024 9.26009 13.7445 9.3877 14.3506 9.3877C14.9567 9.3877 15.3714 9.25098 15.5947 8.97754C15.818 8.7041 16.0938 8.5651 16.4219 8.56055H17.4404C17.5635 8.56055 17.6637 8.60156 17.7412 8.68359C17.8232 8.76107 17.8643 8.86133 17.8643 8.98438C17.8643 10.2923 16.6178 10.944 14.125 10.9395C12.8672 10.9395 11.8874 10.6068 11.1855 9.94141ZM12.5322 6.33887H15.7109C15.6654 5.26335 15.1367 4.72559 14.125 4.72559C13.1178 4.72559 12.5869 5.26335 12.5322 6.33887ZM19.375 10.3857V1.42383C19.375 1.30078 19.4137 1.20052 19.4912 1.12305C19.5732 1.04102 19.6735 1 19.792 1H21.3232C21.4417 1 21.5397 1.04102 21.6172 1.12305C21.6992 1.20052 21.7402 1.30078 21.7402 1.42383V10.3857C21.7402 10.5042 21.6992 10.6045 21.6172 10.6865C21.5397 10.764 21.4417 10.8027 21.3232 10.8027H19.792C19.6735 10.8027 19.5732 10.764 19.4912 10.6865C19.4137 10.6045 19.375 10.5042 19.375 10.3857ZM23.4219 12.6895V3.73438C23.4219 3.61133 23.4606 3.51107 23.5381 3.43359C23.6201 3.35156 23.7204 3.31055 23.8389 3.31055H25.1582C25.2767 3.31055 25.3747 3.35156 25.4521 3.43359C25.5342 3.51107 25.5752 3.61133 25.5752 3.73438V3.93945C26.2952 3.42904 27.1315 3.17383 28.084 3.17383C29.0365 3.17383 29.8317 3.51107 30.4697 4.18555C31.1077 4.85547 31.4268 5.81706 31.4268 7.07031C31.4268 8.31901 31.0964 9.27604 30.4355 9.94141C29.7747 10.6068 28.8838 10.9395 27.7627 10.9395C27.1839 10.9395 26.5254 10.8232 25.7871 10.5908V12.6895C25.7871 12.8125 25.7461 12.9128 25.6641 12.9902C25.5866 13.0723 25.4886 13.1133 25.3701 13.1133H23.8389C23.7204 13.1133 23.6201 13.0723 23.5381 12.9902C23.4606 12.9128 23.4219 12.8125 23.4219 12.6895ZM25.7871 9.01172C26.375 9.19857 26.8695 9.29199 27.2705 9.29199C27.8949 9.29199 28.3369 9.11426 28.5967 8.75879C28.861 8.40332 28.9932 7.83594 28.9932 7.05664C28.9932 6.27734 28.8678 5.71224 28.6172 5.36133C28.3711 5.00586 27.9997 4.82812 27.5029 4.82812C27.0107 4.82812 26.4388 5.0332 25.7871 5.44336V9.01172ZM32.6914 10.3857V1.42383C32.6914 1.30078 32.7301 1.20052 32.8076 1.12305C32.8896 1.04102 32.9899 1 33.1084 1H34.6396C34.7581 1 34.8561 1.04102 34.9336 1.12305C35.0156 1.20052 35.0566 1.30078 35.0566 1.42383V10.3857C35.0566 10.5042 35.0156 10.6045 34.9336 10.6865C34.8561 10.764 34.7581 10.8027 34.6396 10.8027H33.1084C32.9899 10.8027 32.8896 10.764 32.8076 10.6865C32.7301 10.6045 32.6914 10.5042 32.6914 10.3857ZM38.1943 11.5137L39.0898 11.6299C39.7324 11.6299 40.1813 11.1582 40.4365 10.2148C39.6618 10.2148 39.0146 9.98242 38.4951 9.51758C37.9756 9.04818 37.529 8.21647 37.1553 7.02246L36.1367 3.7207C36.123 3.68424 36.1162 3.64323 36.1162 3.59766C36.1162 3.54753 36.1436 3.48828 36.1982 3.41992C36.2575 3.35156 36.3441 3.3151 36.458 3.31055H37.8867C38.0189 3.31055 38.1442 3.35612 38.2627 3.44727C38.3857 3.53385 38.4655 3.64323 38.502 3.77539L39.3975 6.67383C39.6208 7.38477 39.8464 7.87695 40.0742 8.15039C40.3066 8.42383 40.5801 8.56055 40.8945 8.56055L42.2549 3.77539C42.2913 3.64323 42.362 3.53385 42.4668 3.44727C42.5762 3.35612 42.6969 3.31055 42.8291 3.31055H44.2715C44.3854 3.31055 44.4697 3.34701 44.5244 3.41992C44.5791 3.49284 44.6064 3.55436 44.6064 3.60449C44.6064 3.65007 44.6019 3.6888 44.5928 3.7207L42.8018 10.1055C42.4827 11.2357 42.0863 12.0423 41.6123 12.5254C41.1429 13.0085 40.5368 13.25 39.7939 13.25C39.0511 13.25 38.5247 13.2227 38.2148 13.168C37.9095 13.1133 37.7181 13.0449 37.6406 12.9629C37.5632 12.8854 37.5244 12.7943 37.5244 12.6895V11.9375C37.5244 11.8145 37.5632 11.7119 37.6406 11.6299C37.7181 11.5524 37.8184 11.5137 37.9414 11.5137H38.1943Z"/>
</mask>
<path d="M3.24219 1.12305L2.51517 1.80967L2.53479 1.83044L2.55556 1.85006L3.24219 1.12305ZM3.36523 4.16504H2.36523V6.316L4.00978 4.9296L3.36523 4.16504ZM8.03418 3.9873L7.33592 4.70316L7.33895 4.7061L8.03418 3.9873ZM6.61914 10.6865L5.89213 11.3731L5.91175 11.3939L5.93252 11.4135L6.61914 10.6865ZM3.36523 5.80566L2.65813 5.09856L2.36523 5.39145V5.80566H3.36523ZM1.11621 10.6865L0.389198 11.3731L0.408816 11.3939L0.429587 11.4135L1.11621 10.6865ZM11.1924 4.18555L11.8805 4.91113L11.883 4.9088L11.1924 4.18555ZM17.0645 4.1582L16.3815 4.88863L16.384 4.891L17.0645 4.1582ZM12.5459 7.78125V6.78125H11.4613L11.5492 7.86228L12.5459 7.78125ZM13.0244 9.00488L12.3421 9.73596L12.3481 9.74154L13.0244 9.00488ZM16.4219 8.56055V7.56045L16.408 7.56064L16.4219 8.56055ZM17.7412 8.68359L17.0142 9.37022L17.0338 9.39099L17.0546 9.41061L17.7412 8.68359ZM14.125 10.9395L14.1268 9.93945H14.125V10.9395ZM12.5322 6.33887L11.5335 6.28809L11.4801 7.33887H12.5322V6.33887ZM15.7109 6.33887V7.33887H16.7542L16.71 6.29653L15.7109 6.33887ZM21.6172 1.12305L20.8902 1.80967L20.9098 1.83044L20.9306 1.85006L21.6172 1.12305ZM19.4912 10.6865L18.7642 11.3731L18.7838 11.3939L18.8046 11.4135L19.4912 10.6865ZM25.4521 3.43359L24.7251 4.12022L24.7448 4.14099L24.7655 4.16061L25.4521 3.43359ZM25.5752 3.93945H24.5752V5.87407L26.1535 4.75527L25.5752 3.93945ZM30.4697 4.18555L29.7433 4.87275L29.7456 4.8752L30.4697 4.18555ZM25.7871 10.5908L26.0874 9.63697L24.7871 9.22762V10.5908H25.7871ZM25.6641 12.9902L24.9774 12.2632L24.9567 12.2828L24.937 12.3036L25.6641 12.9902ZM25.7871 9.01172H24.7871V9.74318L25.4842 9.96474L25.7871 9.01172ZM28.5967 8.75879L27.7942 8.16207L27.7893 8.16877L28.5967 8.75879ZM28.6172 5.36133L27.795 5.93054L27.7992 5.93658L27.8035 5.94257L28.6172 5.36133ZM25.7871 5.44336L25.2545 4.59703L24.7871 4.89116V5.44336H25.7871ZM34.9336 1.12305L34.2066 1.80967L34.2262 1.83044L34.247 1.85006L34.9336 1.12305ZM32.8076 10.6865L32.0806 11.3731L32.1002 11.3939L32.121 11.4135L32.8076 10.6865ZM38.1943 11.5137L38.323 10.522L38.259 10.5137H38.1943V11.5137ZM39.0898 11.6299L38.9612 12.6216L39.0252 12.6299H39.0898V11.6299ZM40.4365 10.2148L41.4018 10.476L41.743 9.21484H40.4365V10.2148ZM38.4951 9.51758L37.8247 10.2596L37.8283 10.2628L38.4951 9.51758ZM37.1553 7.02246L36.1997 7.31724L36.2009 7.32115L37.1553 7.02246ZM36.1367 3.7207L37.0923 3.42592L37.0835 3.39746L37.073 3.36958L36.1367 3.7207ZM36.1982 3.41992L35.4426 2.76499L35.4297 2.77986L35.4174 2.79523L36.1982 3.41992ZM36.458 3.31055V2.31055H36.438L36.418 2.31135L36.458 3.31055ZM38.2627 3.44727L37.653 4.23989L37.6698 4.25284L37.6872 4.26507L38.2627 3.44727ZM38.502 3.77539L37.538 4.04132L37.542 4.05602L37.5465 4.07058L38.502 3.77539ZM39.3975 6.67383L38.442 6.96903L38.4434 6.9735L39.3975 6.67383ZM40.0742 8.15039L39.306 8.79061L39.3123 8.79804L40.0742 8.15039ZM40.8945 8.56055V9.56055H41.6499L41.8564 8.834L40.8945 8.56055ZM42.2549 3.77539L43.2168 4.04885L43.2189 4.04132L42.2549 3.77539ZM42.4668 3.44727L43.1037 4.21823L43.107 4.21549L42.4668 3.44727ZM44.5928 3.7207L43.6312 3.44598L43.6299 3.45061L44.5928 3.7207ZM42.8018 10.1055L43.7642 10.3771L43.7646 10.3756L42.8018 10.1055ZM41.6123 12.5254L40.8985 11.825L40.8951 11.8285L41.6123 12.5254ZM38.2148 13.168L38.0385 14.1523L38.0411 14.1528L38.2148 13.168ZM37.6406 12.9629L38.3676 12.2763L38.3578 12.2659L38.3477 12.2558L37.6406 12.9629ZM37.6406 11.6299L36.9335 10.9228L36.9234 10.9329L36.9136 10.9433L37.6406 11.6299ZM2 10.3857V1.42383H0V10.3857H2ZM2 1.42383C2 1.4679 1.99285 1.53652 1.96185 1.61675C1.92999 1.69922 1.88119 1.77228 1.82332 1.83015L0.409104 0.41594C0.120311 0.704733 0 1.07121 0 1.42383H2ZM1.82332 1.83015C1.77717 1.8763 1.71287 1.92305 1.63156 1.95631C1.55068 1.9894 1.47535 2 1.41699 2V0C1.03964 0 0.683118 0.141926 0.409104 0.41594L1.82332 1.83015ZM1.41699 2H2.94824V0H1.41699V2ZM2.94824 2C2.89023 2 2.81115 1.98949 2.72446 1.9532C2.63668 1.91646 2.56627 1.86377 2.51517 1.80967L3.9692 0.436423C3.69244 0.143381 3.32637 0 2.94824 0V2ZM2.55556 1.85006C2.49745 1.79518 2.44459 1.72217 2.40893 1.63498C2.37404 1.5497 2.36523 1.47461 2.36523 1.42383H4.36523C4.36523 1.05333 4.23014 0.680619 3.92881 0.396034L2.55556 1.85006ZM2.36523 1.42383V4.16504H4.36523V1.42383H2.36523ZM4.00978 4.9296C4.64365 4.39524 5.25586 4.17383 5.86719 4.17383V2.17383C4.71029 2.17383 3.65453 2.61323 2.72069 3.40047L4.00978 4.9296ZM5.86719 4.17383C6.53566 4.17383 6.99395 4.36959 7.33593 4.70316L8.73243 3.27145C7.96243 2.52038 6.97606 2.17383 5.86719 2.17383V4.17383ZM7.33895 4.7061C7.62823 4.98589 7.86816 5.50116 7.86816 6.46191H9.86816C9.86816 5.19871 9.55211 4.06424 8.7294 3.26851L7.33895 4.7061ZM7.86816 6.46191V10.3857H9.86816V6.46191H7.86816ZM7.86816 10.3857C7.86816 10.3274 7.87877 10.2521 7.91186 10.1712C7.94512 10.0899 7.99187 10.0256 8.03801 9.97942L9.45222 11.3936C9.72624 11.1196 9.86816 10.7631 9.86816 10.3857H7.86816ZM8.03801 9.97942C8.09589 9.92154 8.16895 9.87275 8.25142 9.84088C8.33164 9.80989 8.40026 9.80273 8.44434 9.80273V11.8027C8.79696 11.8027 9.16343 11.6824 9.45222 11.3936L8.03801 9.97942ZM8.44434 9.80273H6.91992V11.8027H8.44434V9.80273ZM6.91992 9.80273C6.97131 9.80273 7.04021 9.8115 7.11626 9.84088C7.19317 9.8706 7.25719 9.91364 7.30576 9.95951L5.93252 11.4135C6.2102 11.6758 6.56022 11.8027 6.91992 11.8027V9.80273ZM7.34615 9.9999C7.39202 10.0485 7.43507 10.1125 7.46478 10.1894C7.49416 10.2655 7.50293 10.3344 7.50293 10.3857H5.50293C5.50293 10.7454 5.62988 11.0955 5.89213 11.3731L7.34615 9.9999ZM7.50293 10.3857V6.46191H5.50293V10.3857H7.50293ZM7.50293 6.46191C7.50293 5.81066 7.3772 5.1372 6.9577 4.61228C6.50399 4.04455 5.85356 3.82812 5.19727 3.82812V5.82812C5.31231 5.82812 5.36692 5.84624 5.38354 5.85317C5.39405 5.85756 5.39301 5.85796 5.39533 5.86087C5.41105 5.88054 5.50293 6.02398 5.50293 6.46191H7.50293ZM5.19727 3.82812C4.2385 3.82812 3.38638 4.37031 2.65813 5.09856L4.07234 6.51277C4.64748 5.93763 5.01671 5.82812 5.19727 5.82812V3.82812ZM2.36523 5.80566V10.3857H4.36523V5.80566H2.36523ZM2.36523 10.3857C2.36523 10.3274 2.37584 10.2521 2.40893 10.1712C2.44219 10.0899 2.48894 10.0256 2.53508 9.97942L3.94929 11.3936C4.22331 11.1196 4.36523 10.7631 4.36523 10.3857H2.36523ZM2.53508 9.97942C2.58912 9.92538 2.65964 9.87665 2.74294 9.84372C2.82469 9.8114 2.89723 9.80273 2.94824 9.80273V11.8027C3.3081 11.8027 3.66807 11.6749 3.94929 11.3936L2.53508 9.97942ZM2.94824 9.80273H1.41699V11.8027H2.94824V9.80273ZM1.41699 9.80273C1.46838 9.80273 1.53728 9.8115 1.61333 9.84088C1.69024 9.8706 1.75427 9.91364 1.80283 9.95951L0.429587 11.4135C0.707265 11.6758 1.05729 11.8027 1.41699 11.8027V9.80273ZM1.84322 9.9999C1.8891 10.0485 1.93214 10.1125 1.96185 10.1894C1.99123 10.2655 2 10.3344 2 10.3857H0C0 10.7454 0.126946 11.0955 0.389198 11.3731L1.84322 9.9999ZM11.8736 9.2157C11.4247 8.79019 11.1328 8.12875 11.1328 7.07031H9.13281C9.13281 8.50927 9.54272 9.76189 10.4975 10.6671L11.8736 9.2157ZM11.1328 7.07031C11.1328 6.00831 11.4264 5.34176 11.8805 4.91113L10.5042 3.45996C9.54556 4.36918 9.13281 5.6258 9.13281 7.07031H11.1328ZM11.883 4.9088C12.3549 4.45814 13.0601 4.17383 14.1318 4.17383V2.17383C12.6971 2.17383 11.4426 2.56399 10.5018 3.4623L11.883 4.9088ZM14.1318 4.17383C15.211 4.17383 15.9158 4.45319 16.3815 4.88863L17.7474 3.42778C16.8095 2.55071 15.5592 2.17383 14.1318 2.17383V4.17383ZM16.384 4.891C16.8293 5.30449 17.1172 5.94323 17.1172 6.96777H19.1172C19.1172 5.54961 18.7033 4.3153 17.7449 3.42541L16.384 4.891ZM17.1172 6.96777V7.35742H19.1172V6.96777H17.1172ZM17.1172 7.35742C17.1172 7.30623 17.1261 7.23483 17.1579 7.15522C17.1903 7.07445 17.2372 7.00776 17.287 6.95793L18.7012 8.37215C18.9831 8.09032 19.1172 7.72783 19.1172 7.35742H17.1172ZM17.287 6.95793C17.3449 6.90006 17.418 6.85126 17.5004 6.8194C17.5807 6.7884 17.6493 6.78125 17.6934 6.78125V8.78125C18.046 8.78125 18.4125 8.66094 18.7012 8.37215L17.287 6.95793ZM17.6934 6.78125H12.5459V8.78125H17.6934V6.78125ZM11.5492 7.86228C11.605 8.54935 11.8136 9.24264 12.3421 9.73594L13.7067 8.27383C13.6884 8.25671 13.5779 8.13425 13.5426 7.70022L11.5492 7.86228ZM12.3481 9.74154C12.8947 10.2433 13.6381 10.3877 14.3506 10.3877V8.3877C13.8509 8.3877 13.7101 8.27691 13.7007 8.26823L12.3481 9.74154ZM14.3506 10.3877C15.0496 10.3877 15.8553 10.2394 16.3693 9.61007L14.8202 8.345C14.8547 8.30276 14.8725 8.31257 14.8031 8.33543C14.7275 8.36036 14.5854 8.3877 14.3506 8.3877V10.3877ZM16.3693 9.61007C16.4049 9.56642 16.4232 9.55912 16.4192 9.56116C16.4181 9.56167 16.4169 9.56207 16.4169 9.56206C16.4172 9.56199 16.4228 9.56063 16.4358 9.56045L16.408 7.56064C15.7599 7.56964 15.2142 7.86252 14.8202 8.345L16.3693 9.61007ZM16.4219 9.56055H17.4404V7.56055H16.4219V9.56055ZM17.4404 9.56055C17.3896 9.56055 17.3146 9.55174 17.2293 9.51686C17.1421 9.48119 17.0691 9.42833 17.0142 9.37022L18.4682 7.99697C18.1836 7.69565 17.8109 7.56055 17.4404 7.56055V9.56055ZM17.0546 9.41061C16.9965 9.35572 16.9436 9.28272 16.9079 9.19553C16.8731 9.11024 16.8643 9.03516 16.8643 8.98438H18.8643C18.8643 8.61388 18.7292 8.24117 18.4278 7.95658L17.0546 9.41061ZM16.8643 8.98438C16.8643 9.14598 16.828 9.24072 16.7868 9.3056C16.743 9.37443 16.6552 9.46906 16.4661 9.56792C16.0583 9.78117 15.3185 9.94163 14.1268 9.93945L14.1232 11.9395C15.4243 11.9418 16.5542 11.7787 17.3928 11.3403C17.8269 11.1133 18.2065 10.8 18.4743 10.379C18.7447 9.95394 18.8643 9.47674 18.8643 8.98438H16.8643ZM14.125 9.93945C13.0436 9.93945 12.3389 9.65692 11.8736 9.2157L10.4975 10.6671C11.4358 11.5566 12.6907 11.9395 14.125 11.9395V9.93945ZM12.5322 7.33887H15.7109V5.33887H12.5322V7.33887ZM16.71 6.29653C16.6812 5.61634 16.4931 4.93614 15.9934 4.42787C15.4837 3.90939 14.8043 3.72559 14.125 3.72559V5.72559C14.4574 5.72559 14.5482 5.81067 14.5671 5.82994C14.5961 5.85943 14.6951 5.98587 14.7118 6.3812L16.71 6.29653ZM14.125 3.72559C13.4461 3.72559 12.7693 3.9103 12.2598 4.42634C11.7609 4.93163 11.5681 5.60848 11.5335 6.28809L13.5309 6.38965C13.5511 5.99373 13.651 5.86394 13.6831 5.83148C13.7045 5.80975 13.7967 5.72559 14.125 5.72559V3.72559ZM20.375 10.3857V1.42383H18.375V10.3857H20.375ZM20.375 1.42383C20.375 1.4679 20.3678 1.53652 20.3369 1.61675C20.305 1.69922 20.2562 1.77228 20.1983 1.83015L18.7841 0.41594C18.4953 0.704733 18.375 1.07121 18.375 1.42383H20.375ZM20.1983 1.83015C20.1522 1.8763 20.0879 1.92305 20.0066 1.95631C19.9257 1.9894 19.8504 2 19.792 2V0C19.4146 0 19.0581 0.141926 18.7841 0.41594L20.1983 1.83015ZM19.792 2H21.3232V0H19.792V2ZM21.3232 2C21.2652 2 21.1861 1.98949 21.0995 1.9532C21.0117 1.91646 20.9413 1.86377 20.8902 1.80967L22.3442 0.436423C22.0674 0.143381 21.7014 0 21.3232 0V2ZM20.9306 1.85006C20.8725 1.79518 20.8196 1.72217 20.7839 1.63498C20.749 1.5497 20.7402 1.47461 20.7402 1.42383H22.7402C22.7402 1.05333 22.6051 0.680619 22.3038 0.396034L20.9306 1.85006ZM20.7402 1.42383V10.3857H22.7402V1.42383H20.7402ZM20.7402 10.3857C20.7402 10.3274 20.7508 10.2521 20.7839 10.1712C20.8172 10.0899 20.8639 10.0256 20.9101 9.97942L22.3243 11.3936C22.5983 11.1196 22.7402 10.7631 22.7402 10.3857H20.7402ZM20.9101 9.97942C20.9641 9.92538 21.0346 9.87665 21.1179 9.84372C21.1997 9.8114 21.2722 9.80273 21.3232 9.80273V11.8027C21.6831 11.8027 22.0431 11.6749 22.3243 11.3936L20.9101 9.97942ZM21.3232 9.80273H19.792V11.8027H21.3232V9.80273ZM19.792 9.80273C19.8434 9.80273 19.9123 9.8115 19.9883 9.84088C20.0652 9.8706 20.1293 9.91364 20.1778 9.95951L18.8046 11.4135C19.0823 11.6758 19.4323 11.8027 19.792 11.8027V9.80273ZM20.2182 9.9999C20.2641 10.0485 20.3071 10.1125 20.3369 10.1894C20.3662 10.2655 20.375 10.3344 20.375 10.3857H18.375C18.375 10.7454 18.5019 11.0955 18.7642 11.3731L20.2182 9.9999ZM24.4219 12.6895V3.73438H22.4219V12.6895H24.4219ZM24.4219 3.73438C24.4219 3.77845 24.4147 3.84707 24.3837 3.92729C24.3519 4.00977 24.3031 4.08283 24.2452 4.1407L22.831 2.72649C22.5422 3.01528 22.4219 3.38175 22.4219 3.73438H24.4219ZM24.2452 4.1407C24.199 4.18685 24.1347 4.23359 24.0534 4.26686C23.9726 4.29994 23.8972 4.31055 23.8389 4.31055V2.31055C23.4615 2.31055 23.105 2.45247 22.831 2.72649L24.2452 4.1407ZM23.8389 4.31055H25.1582V2.31055H23.8389V4.31055ZM25.1582 4.31055C25.1002 4.31055 25.0211 4.30004 24.9344 4.26375C24.8466 4.22701 24.7762 4.17432 24.7251 4.12022L26.1792 2.74697C25.9024 2.45393 25.5363 2.31055 25.1582 2.31055V4.31055ZM24.7655 4.16061C24.7074 4.10572 24.6546 4.03272 24.6189 3.94553C24.584 3.86024 24.5752 3.78516 24.5752 3.73438H26.5752C26.5752 3.36388 26.4401 2.99117 26.1388 2.70658L24.7655 4.16061ZM24.5752 3.73438V3.93945H26.5752V3.73438H24.5752ZM26.1535 4.75527C26.6909 4.3743 27.3214 4.17383 28.084 4.17383V2.17383C26.9416 2.17383 25.8996 2.48377 24.9969 3.12363L26.1535 4.75527ZM28.084 4.17383C28.7696 4.17383 29.2996 4.40371 29.7433 4.87275L31.1962 3.49835C30.3638 2.61843 29.3033 2.17383 28.084 2.17383V4.17383ZM29.7456 4.8752C30.1514 5.30135 30.4268 5.98097 30.4268 7.07031H32.4268C32.4268 5.65315 32.0641 4.40959 31.1939 3.49589L29.7456 4.8752ZM30.4268 7.07031C30.4268 8.14538 30.1455 8.81433 29.726 9.23673L31.1451 10.6461C32.0472 9.73775 32.4268 8.49264 32.4268 7.07031H30.4268ZM29.726 9.23673C29.289 9.67681 28.6733 9.93945 27.7627 9.93945V11.9395C29.0943 11.9395 30.2605 11.5367 31.1451 10.6461L29.726 9.23673ZM27.7627 9.93945C27.3135 9.93945 26.7591 9.84844 26.0874 9.63697L25.4868 11.5447C26.2917 11.798 27.0543 11.9395 27.7627 11.9395V9.93945ZM24.7871 10.5908V12.6895H26.7871V10.5908H24.7871ZM24.7871 12.6895C24.7871 12.6387 24.7959 12.5636 24.8308 12.4783C24.8665 12.3911 24.9193 12.3181 24.9774 12.2632L26.3507 13.7172C26.652 13.4327 26.7871 13.0599 26.7871 12.6895H24.7871ZM24.937 12.3036C24.9881 12.2495 25.0586 12.1968 25.1463 12.1601C25.233 12.1238 25.3121 12.1133 25.3701 12.1133V14.1133C25.7482 14.1133 26.1143 13.9699 26.3911 13.6769L24.937 12.3036ZM25.3701 12.1133H23.8389V14.1133H25.3701V12.1133ZM23.8389 12.1133C23.8972 12.1133 23.9726 12.1239 24.0534 12.157C24.1347 12.1902 24.199 12.237 24.2452 12.2831L22.831 13.6973C23.105 13.9714 23.4615 14.1133 23.8389 14.1133V12.1133ZM24.2452 12.2831C24.3031 12.341 24.3519 12.4141 24.3837 12.4965C24.4147 12.5768 24.4219 12.6454 24.4219 12.6895H22.4219C22.4219 13.0421 22.5422 13.4085 22.831 13.6973L24.2452 12.2831ZM25.4842 9.96474C26.1233 10.1679 26.727 10.292 27.2705 10.292V8.29199C27.0119 8.29199 26.6267 8.22927 26.09 8.0587L25.4842 9.96474ZM27.2705 10.292C28.0719 10.292 28.8855 10.0584 29.4041 9.34881L27.7893 8.16877C27.7883 8.17009 27.7178 8.29199 27.2705 8.29199V10.292ZM29.3991 9.35549C29.8573 8.73932 29.9932 7.906 29.9932 7.05664H27.9932C27.9932 7.76588 27.8647 8.06732 27.7942 8.16209L29.3991 9.35549ZM29.9932 7.05664C29.9932 6.21582 29.8667 5.39014 29.4309 4.78009L27.8035 5.94257C27.869 6.03434 27.9932 6.33887 27.9932 7.05664H29.9932ZM29.4394 4.79212C28.9765 4.12349 28.2713 3.82812 27.5029 3.82812V5.82812C27.7281 5.82812 27.7657 5.88823 27.795 5.93054L29.4394 4.79212ZM27.5029 3.82812C26.744 3.82812 25.9831 4.13847 25.2545 4.59703L26.3198 6.28969C26.8946 5.92794 27.2775 5.82812 27.5029 5.82812V3.82812ZM24.7871 5.44336V9.01172H26.7871V5.44336H24.7871ZM33.6914 10.3857V1.42383H31.6914V10.3857H33.6914ZM33.6914 1.42383C33.6914 1.4679 33.6843 1.53652 33.6533 1.61675C33.6214 1.69922 33.5726 1.77228 33.5147 1.83015L32.1005 0.41594C31.8117 0.704733 31.6914 1.07121 31.6914 1.42383H33.6914ZM33.5147 1.83015C33.4686 1.8763 33.4043 1.92305 33.323 1.95631C33.2421 1.9894 33.1668 2 33.1084 2V0C32.731 0 32.3745 0.141926 32.1005 0.41594L33.5147 1.83015ZM33.1084 2H34.6396V0H33.1084V2ZM34.6396 2C34.5816 2 34.5026 1.98949 34.4159 1.9532C34.3281 1.91646 34.2577 1.86377 34.2066 1.80967L35.6606 0.436423C35.3838 0.143381 35.0178 0 34.6396 0V2ZM34.247 1.85006C34.1889 1.79518 34.136 1.72217 34.1003 1.63498C34.0654 1.5497 34.0566 1.47461 34.0566 1.42383H36.0566C36.0566 1.05333 35.9215 0.680619 35.6202 0.396034L34.247 1.85006ZM34.0566 1.42383V10.3857H36.0566V1.42383H34.0566ZM34.0566 10.3857C34.0566 10.3274 34.0672 10.2521 34.1003 10.1712C34.1336 10.0899 34.1803 10.0256 34.2265 9.97942L35.6407 11.3936C35.9147 11.1196 36.0566 10.7631 36.0566 10.3857H34.0566ZM34.2265 9.97942C34.2805 9.92538 34.351 9.87665 34.4343 9.84372C34.5161 9.8114 34.5886 9.80273 34.6396 9.80273V11.8027C34.9995 11.8027 35.3595 11.6749 35.6407 11.3936L34.2265 9.97942ZM34.6396 9.80273H33.1084V11.8027H34.6396V9.80273ZM33.1084 9.80273C33.1598 9.80273 33.2287 9.8115 33.3047 9.84088C33.3816 9.8706 33.4457 9.91364 33.4942 9.95951L32.121 11.4135C32.3987 11.6758 32.7487 11.8027 33.1084 11.8027V9.80273ZM33.5346 9.9999C33.5805 10.0485 33.6235 10.1125 33.6533 10.1894C33.6826 10.2655 33.6914 10.3344 33.6914 10.3857H31.6914C31.6914 10.7454 31.8184 11.0955 32.0806 11.3731L33.5346 9.9999ZM38.0656 12.5054L38.9612 12.6216L39.2185 10.6382L38.323 10.522L38.0656 12.5054ZM39.0898 12.6299C39.689 12.6299 40.2225 12.3967 40.6328 11.9655C41.0152 11.5637 41.2508 11.0342 41.4018 10.476L39.4712 9.9537C39.367 10.3389 39.2506 10.5168 39.1841 10.5867C39.1557 10.6165 39.1404 10.6228 39.1388 10.6235C39.1374 10.6241 39.1252 10.6299 39.0898 10.6299V12.6299ZM40.4365 9.21484C39.8783 9.21484 39.4772 9.05446 39.1619 8.77234L37.8283 10.2628C38.5521 10.9104 39.4453 11.2148 40.4365 11.2148V9.21484ZM39.1655 8.77558C38.8462 8.48707 38.4661 7.8629 38.1096 6.72377L36.2009 7.32115C36.5918 8.57005 37.105 9.60928 37.8247 10.2596L39.1655 8.77558ZM38.1108 6.72768L37.0923 3.42592L35.1812 4.01548L36.1997 7.31724L38.1108 6.72768ZM37.073 3.36958C37.108 3.46275 37.1162 3.54337 37.1162 3.59766H35.1162C35.1162 3.74309 35.1381 3.90574 35.2004 4.07183L37.073 3.36958ZM37.1162 3.59766C37.1162 3.75399 37.0741 3.87092 37.0447 3.93468C37.0152 3.99858 36.9863 4.03563 36.9791 4.04462L35.4174 2.79523C35.316 2.922 35.1162 3.20455 35.1162 3.59766H37.1162ZM36.9539 4.07485C36.8792 4.16112 36.7881 4.22401 36.6957 4.26294C36.6077 4.29997 36.5359 4.30823 36.498 4.30975L36.418 2.31135C36.1047 2.32388 35.7273 2.43647 35.4426 2.76499L36.9539 4.07485ZM36.458 4.31055H37.8867V2.31055H36.458V4.31055ZM37.8867 4.31055C37.8352 4.31055 37.784 4.3012 37.7381 4.28452C37.6935 4.26832 37.6653 4.24935 37.653 4.23989L38.8724 2.65464C38.6032 2.44755 38.268 2.31055 37.8867 2.31055V4.31055ZM37.6872 4.26507C37.6691 4.25236 37.6381 4.22642 37.6068 4.18341C37.5747 4.13937 37.5514 4.08999 37.538 4.04132L39.4659 3.50946C39.3617 3.13167 39.131 2.83554 38.8382 2.62946L37.6872 4.26507ZM37.5465 4.07058L38.442 6.96902L40.3529 6.37863L39.4574 3.4802L37.5465 4.07058ZM38.4434 6.9735C38.6724 7.70261 38.9446 8.3569 39.306 8.79058L40.8424 7.51021C40.7481 7.397 40.5691 7.06692 40.3515 6.37416L38.4434 6.9735ZM39.3123 8.79804C39.7047 9.25975 40.2434 9.56055 40.8945 9.56055V7.56055C40.889 7.56055 40.8891 7.56001 40.8929 7.5609C40.8968 7.56182 40.8999 7.56313 40.9008 7.56358C40.9036 7.56499 40.8801 7.55445 40.8362 7.50274L39.3123 8.79804ZM41.8564 8.834L43.2168 4.04884L41.293 3.50194L39.9326 8.2871L41.8564 8.834ZM43.2189 4.04132C43.2115 4.06799 43.1979 4.10166 43.1752 4.13676C43.1525 4.17193 43.1268 4.19914 43.1037 4.21823L41.8299 2.6763C41.5654 2.89483 41.3815 3.18115 41.2909 3.50946L43.2189 4.04132ZM43.107 4.21549C43.0847 4.23401 43.0466 4.25988 42.9925 4.28033C42.9373 4.30115 42.8807 4.31055 42.8291 4.31055V2.31055C42.4443 2.31055 42.1008 2.45059 41.8266 2.67904L43.107 4.21549ZM42.8291 4.31055H44.2715V2.31055H42.8291V4.31055ZM44.2715 4.31055C44.2238 4.31055 44.1327 4.30306 44.0233 4.25575C43.907 4.20547 43.8023 4.12382 43.7244 4.01992L45.3244 2.81992C45.034 2.43272 44.6129 2.31055 44.2715 2.31055V4.31055ZM43.7244 4.01992C43.7214 4.01586 43.6976 3.9841 43.6721 3.92689C43.6474 3.8713 43.6064 3.75857 43.6064 3.60449H45.6064C45.6064 3.22222 45.4159 2.94195 45.3244 2.81992L43.7244 4.01992ZM43.6064 3.60449C43.6064 3.58916 43.6073 3.52971 43.6312 3.44598L45.5543 3.99542C45.5964 3.8479 45.6064 3.71097 45.6064 3.60449H43.6064ZM43.6299 3.45061L41.8389 9.83538L43.7646 10.3756L45.5556 3.99079L43.6299 3.45061ZM41.8394 9.83382C41.5368 10.9056 41.1977 11.5201 40.8985 11.825L42.3261 13.2257C42.9748 12.5645 43.4286 11.5658 43.7642 10.3771L41.8394 9.83382ZM40.8951 11.8285C40.6344 12.0969 40.2972 12.25 39.7939 12.25V14.25C40.7763 14.25 41.6515 13.9201 42.3295 13.2223L40.8951 11.8285ZM39.7939 12.25C39.0524 12.25 38.6039 12.2212 38.3886 12.1832L38.0411 14.1528C38.4456 14.2241 39.0499 14.25 39.7939 14.25V12.25ZM38.3911 12.1836C38.332 12.173 38.2846 12.1629 38.2476 12.1537C38.2101 12.1444 38.1882 12.1374 38.1786 12.1339C38.1677 12.13 38.1807 12.1337 38.2082 12.1491C38.2228 12.1572 38.2446 12.1704 38.2709 12.1899C38.297 12.2093 38.331 12.2375 38.3676 12.2763L36.9136 13.6495C37.1159 13.8637 37.3628 13.9663 37.5059 14.0174C37.6733 14.0772 37.8566 14.1197 38.0385 14.1523L38.3911 12.1836ZM38.3477 12.2558C38.39 12.2981 38.4379 12.3609 38.4738 12.4453C38.51 12.5305 38.5244 12.6154 38.5244 12.6895H36.5244C36.5244 13.0726 36.678 13.4145 36.9335 13.67L38.3477 12.2558ZM38.5244 12.6895V11.9375H36.5244V12.6895H38.5244ZM38.5244 11.9375C38.5244 11.982 38.5171 12.0471 38.4889 12.1217C38.4602 12.1979 38.417 12.2642 38.3676 12.3165L36.9136 10.9433C36.6442 11.2285 36.5244 11.5844 36.5244 11.9375H38.5244ZM38.3477 12.337C38.2899 12.3949 38.2168 12.4437 38.1343 12.4755C38.0541 12.5065 37.9855 12.5137 37.9414 12.5137V10.5137C37.5888 10.5137 37.2223 10.634 36.9335 10.9228L38.3477 12.337ZM37.9414 12.5137H38.1943V10.5137H37.9414V12.5137Z" fill="#FF6C37" mask="url(#path-1-outside-1_1_6)"/>
</svg>
