<svg width="10" height="11" viewBox="0 0 10 11" fill="none" xmlns="http://www.w3.org/2000/svg">
<path fill-rule="evenodd" clip-rule="evenodd" d="M4.74805 3.68952C5.118 3.53713 5.49951 3.46094 5.89258 3.46094C6.6543 3.46094 7.27344 3.69336 7.75 4.1582C8.22656 4.61914 8.46484 5.32617 8.46484 6.2793V9.64258C8.46484 9.74414 8.42969 9.83008 8.35938 9.90039C8.29297 9.9668 8.20703 10 8.10156 10H6.79492C6.69336 10 6.60742 9.9668 6.53711 9.90039C6.4707 9.83008 6.4375 9.74414 6.4375 9.64258V6.2793C6.4375 5.3457 6.06445 4.87891 5.31836 4.87891C4.83008 4.87891 4.30664 5.1582 3.74805 5.7168V9.64258C3.74805 9.74414 3.71289 9.83008 3.64258 9.90039C3.57617 9.9668 3.49219 10 3.39062 10H2.07812C1.97656 10 1.89062 9.9668 1.82031 9.90039C1.75391 9.83008 1.7207 9.74414 1.7207 9.64258V1.96094C1.7207 1.85547 1.75391 1.76953 1.82031 1.70312C1.89062 1.63281 1.97656 1.59766 2.07812 1.59766H3.39062C3.49219 1.59766 3.57617 1.63281 3.64258 1.70312C3.71289 1.76953 3.74805 1.85547 3.74805 1.96094V4.31055C4.07143 4.03793 4.40476 3.83092 4.74805 3.68952ZM4.74805 2.62926C5.11491 2.51877 5.49682 2.46094 5.89258 2.46094C6.87378 2.46094 7.75639 2.76831 8.44674 3.44088C9.18888 4.1597 9.46484 5.17569 9.46484 6.2793V9.64258C9.46484 10.003 9.32878 10.3452 9.06648 10.6075C8.78876 10.8852 8.43661 11 8.10156 11H6.79492C6.45215 11 6.11645 10.8786 5.85049 10.6274L5.82971 10.6078L5.8101 10.587C5.55891 10.3211 5.4375 9.98535 5.4375 9.64258V6.2793C5.4375 6.10922 5.42016 5.99503 5.40125 5.92404C5.39673 5.90707 5.39237 5.89346 5.3885 5.88274C5.37185 5.88065 5.34883 5.87891 5.31836 5.87891C5.2413 5.87891 5.05389 5.91691 4.74805 6.15994V9.64258C4.74805 10.003 4.61198 10.3452 4.34968 10.6075C4.07953 10.8777 3.73356 11 3.39062 11H2.07812C1.73535 11 1.39965 10.8786 1.13369 10.6274L1.11292 10.6078L1.0933 10.587C0.842116 10.3211 0.720703 9.98535 0.720703 9.64258V1.96094C0.720703 1.62589 0.83548 1.27374 1.11321 0.996018C1.3755 0.733723 1.7177 0.597656 2.07812 0.597656H3.39062C3.74294 0.597656 4.08656 0.728492 4.34982 0.99599C4.62495 1.26686 4.74805 1.61651 4.74805 1.96094V2.62926Z" fill="#FF6C37"/>
</svg>
